<svg version="1.0" xmlns="http://www.w3.org/2000/svg"
 width="14" height="16" viewBox="0 0 1300.000000 1300.000000"
 preserveAspectRatio="xMidYMid meet">

<g transform="translate(0.000000,1300.000000) scale(0.100000,-0.100000)"
fill="#ffffff" stroke="none">
<path d="M6153 10775 c-537 -56 -953 -175 -1408 -404 -506 -256 -932 -600
-1287 -1042 -884 -1099 -1102 -2594 -571 -3908 196 -485 474 -903 853 -1281
320 -320 629 -546 1010 -736 450 -225 882 -349 1395 -399 172 -17 618 -14 775
5 643 78 1191 273 1705 608 245 159 391 278 623 506 550 540 915 1216 1076
1991 83 396 98 898 40 1315 -162 1176 -864 2222 -1898 2829 -456 268 -970 439
-1526 507 -184 22 -613 27 -787 9z m767 -1140 c404 -64 776 -208 1110 -430
174 -116 273 -197 436 -360 362 -361 608 -795 729 -1288 146 -590 95 -1210
-142 -1761 -260 -601 -704 -1077 -1287 -1377 -402 -207 -804 -303 -1266 -303
-460 0 -852 94 -1265 304 -276 140 -465 278 -690 504 -229 230 -379 434 -515
701 -226 445 -328 919 -299 1401 15 246 17 283 23 292 2 4 10 39 16 78 56 335
214 724 418 1028 61 90 170 237 191 256 4 3 38 41 76 84 87 99 259 255 385
349 374 281 843 472 1285 526 50 6 104 13 120 15 82 11 576 -3 675 -19z m3300
-3149 c0 -2 -8 -10 -17 -17 -16 -13 -17 -12 -4 4 13 16 21 21 21 13z m-9 -83
c13 -16 12 -17 -3 -4 -10 7 -18 15 -18 17 0 8 8 3 21 -13z"/>
<path d="M6265 9235 c-185 -34 -344 -171 -406 -351 l-24 -69 3 -631 4 -631
-174 -6 c-95 -2 -374 -5 -619 -6 -489 -1 -504 -3 -621 -62 -76 -39 -185 -144
-221 -214 -56 -111 -62 -152 -61 -390 0 -211 1 -223 26 -293 14 -40 40 -95 58
-122 71 -110 214 -207 343 -231 39 -7 261 -9 661 -7 l603 3 7 -164 c3 -90 6
-363 6 -606 0 -270 4 -464 11 -501 31 -175 172 -334 349 -395 56 -19 91 -23
251 -27 230 -5 306 5 415 58 134 65 234 187 275 336 18 67 19 103 17 687 l-3
617 235 0 c564 1 1004 12 1064 27 170 42 303 165 365 337 23 65 25 88 29 266
4 221 -7 299 -58 408 -64 138 -227 257 -385 282 -50 8 -239 9 -661 5 l-591 -7
-6 278 c-3 154 -6 432 -7 619 -1 380 -7 426 -65 530 -74 133 -229 242 -375
265 -90 14 -360 11 -445 -5z"/>
</g>
</svg>
